<svg width="65" height="64" viewBox="0 0 65 64" fill="none" xmlns="http://www.w3.org/2000/svg">
<path d="M36.1229 18.096C36.1229 20.1173 35.8055 22.1964 35.1709 24.3333C34.5539 26.4557 33.69 28.5709 32.5793 30.6788C31.4863 32.7868 30.1993 34.8516 28.7185 36.8728C27.2376 38.894 25.6509 40.8071 23.9585 42.6121C22.2661 44.4167 20.4943 46.0772 18.6432 47.5929C16.8098 49.1092 14.9851 50.4156 13.1692 51.513C11.3534 52.6104 9.59047 53.4622 7.88039 54.0686C6.17031 54.6895 4.5925 55 3.14687 55C2.6885 55 2.26539 54.9276 1.87754 54.7831C1.48969 54.6535 1.16355 54.4802 0.899105 54.2633C0.617031 54.0471 0.396664 53.7941 0.237998 53.5055C0.0793328 53.231 0 52.9424 0 52.6392C0 51.7729 0.379034 50.8273 1.1371 49.8023C1.89517 48.7915 2.90887 47.752 4.17819 46.6836C5.44752 45.6296 6.91075 44.59 8.56794 43.565C10.2251 42.5397 11.9616 41.5868 13.7775 40.7063C15.5933 39.8254 17.418 39.0603 19.2514 38.4103C21.1025 37.7463 22.8478 37.2553 24.4874 36.9376C26.1446 34.1946 27.4668 31.2852 28.454 28.2099C29.4589 25.1201 29.9614 21.8788 29.9614 18.4858C29.9614 17.3597 29.8908 16.414 29.7498 15.6488C29.6088 14.8835 29.4148 14.2771 29.168 13.8295C28.9388 13.3675 28.6656 13.0427 28.3483 12.855C28.0486 12.6529 27.7224 12.5518 27.3698 12.5518C27.0701 12.5518 26.6911 12.6456 26.2327 12.8333C25.7744 13.0066 25.2807 13.317 24.7518 13.7646C24.2229 14.2122 23.6853 14.8113 23.1387 15.5621C22.6098 16.2985 22.1338 17.2225 21.7107 18.3342C21.2876 19.446 20.9351 20.767 20.653 22.2975C20.3885 23.828 20.2563 25.6038 20.2563 27.6252C20.2563 28.4048 20.2916 29.1484 20.3621 29.8559C20.4326 30.5633 20.5119 31.2203 20.6001 31.8267C20.7059 32.4331 20.794 32.9817 20.8645 33.4726C20.9351 33.9634 20.9703 34.3824 20.9703 34.7289C20.9703 34.8585 20.9262 34.9815 20.8381 35.0969C20.7499 35.1981 20.5913 35.2487 20.3621 35.2487C19.6922 35.2487 19.0575 35.0609 18.4581 34.6852C17.8587 34.31 17.3298 33.848 16.8714 33.2993C16.4307 32.7363 16.0781 32.1299 15.8137 31.4801C15.5669 30.8304 15.4434 30.224 15.4434 29.6609C15.4434 28.3037 15.5933 26.8744 15.893 25.3728C16.2103 23.8568 16.6599 22.3697 17.2417 20.9114C17.8411 19.4388 18.5727 18.0382 19.4365 16.71C20.3004 15.3817 21.2876 14.2122 22.3983 13.2015C23.509 12.1908 24.7342 11.3895 26.074 10.7975C27.4315 10.1911 28.8859 9.88794 30.4373 9.88794C31.1954 9.88794 31.8653 10.0107 32.4471 10.2561C33.0289 10.5016 33.5313 10.8409 33.9544 11.274C34.3775 11.6927 34.7301 12.1764 35.0122 12.725C35.2943 13.2737 35.5146 13.8584 35.6733 14.4793C35.832 15.0857 35.9466 15.6993 36.0171 16.3201C36.0876 16.941 36.1229 17.5329 36.1229 18.096ZM17.1888 45.947C18.3347 44.8644 19.4189 43.7164 20.4414 42.5036C21.4815 41.2908 22.4512 40.0132 23.3503 38.6701C20.5119 39.551 18.0879 40.4894 16.0781 41.4859C14.086 42.4676 12.4552 43.4278 11.1859 44.3662C9.93424 45.3045 9.02629 46.1781 8.46216 46.9865C7.88039 47.7953 7.5895 48.4523 7.5895 48.9575C7.5895 49.3761 7.76581 49.6505 8.11839 49.7804C8.45336 49.9104 8.84118 49.9755 9.28194 49.9755C9.84607 49.9755 10.4719 49.8671 11.1595 49.6505C11.847 49.4339 12.5346 49.138 13.2221 48.7627C13.9273 48.4017 14.6237 47.9758 15.3112 47.4848C15.9988 47.0083 16.6246 46.4958 17.1888 45.947ZM40.2482 48.243C39.208 48.243 38.2472 48.1057 37.3657 47.8313C36.4843 47.5714 35.7262 47.1816 35.0915 46.6618C34.4569 46.1566 33.9632 45.5356 33.6107 44.7993C33.2581 44.0775 33.0818 43.2473 33.0818 42.3086C33.0818 40.8795 33.4343 39.4789 34.1395 38.1074C34.8271 36.7213 35.7703 35.4434 36.9691 34.2739C38.1679 33.09 39.5606 32.0432 41.1473 31.1336C42.7517 30.224 44.4526 29.5165 46.2508 29.0112C45.6868 28.8235 45.1579 28.5709 44.6642 28.2532C44.1708 27.9356 43.7388 27.5674 43.3686 27.1487C43.0161 26.7156 42.7339 26.2319 42.5224 25.6977C42.3286 25.1635 42.2315 24.5787 42.2315 23.9434C42.2315 22.774 42.4428 21.59 42.8659 20.3917C43.3068 19.1933 43.9064 18.0455 44.6642 16.9482C45.4224 15.8365 46.3215 14.7969 47.3619 13.8295C48.4019 12.8622 49.5299 12.0248 50.7468 11.3173C51.9805 10.5954 53.2765 10.0323 54.6339 9.62806C55.9912 9.20936 57.3663 9 58.7592 9C59.5347 9 60.2929 9.07218 61.0334 9.21657C61.7916 9.34651 62.4613 9.59195 63.0431 9.95292C63.6249 10.2994 64.092 10.7831 64.4445 11.4039C64.8151 12.0103 65 12.79 65 13.7429C65 14.4793 64.8062 15.1867 64.4182 15.8653C64.0302 16.5439 63.528 17.1503 62.9111 17.6845C62.3116 18.2043 61.6418 18.623 60.9014 18.9406C60.1609 19.2583 59.4467 19.4171 58.7592 19.4171C58.6534 19.4171 58.5476 19.381 58.4418 19.3088C58.336 19.2222 58.2832 19.1139 58.2832 18.984C58.2832 18.7385 58.3712 18.4425 58.5476 18.096C58.724 17.735 58.9178 17.338 59.1294 16.9049C59.3587 16.4573 59.5614 15.9808 59.7378 15.4755C59.9138 14.9702 60.0018 14.4504 60.0018 13.9162C60.0018 12.9777 59.7378 12.2269 59.2089 11.6638C58.6974 11.1007 57.9481 10.8192 56.9609 10.8192C55.9912 10.8192 55.0921 11.0358 54.2636 11.4689C53.4352 11.9021 52.6859 12.4724 52.0161 13.1798C51.3459 13.8729 50.7552 14.6525 50.2441 15.5188C49.733 16.3851 49.301 17.2586 48.9485 18.1393C48.6134 19.0056 48.3579 19.8358 48.1814 20.6299C48.005 21.424 47.917 22.0881 47.917 22.6224C47.917 23.4886 48.005 24.225 48.1814 24.8314C48.3579 25.4233 48.5779 25.9215 48.8428 26.3257C49.1068 26.7156 49.389 27.0332 49.689 27.2787C49.9885 27.5241 50.2703 27.7262 50.5352 27.8851C50.7992 28.0294 51.0197 28.1521 51.1961 28.2532C51.3725 28.3399 51.4605 28.4409 51.4605 28.5564C51.4605 28.8452 51.3459 29.1051 51.1166 29.3361C50.905 29.5671 50.5965 29.7043 50.1912 29.7476C48.5694 30.1229 47.0886 30.7149 45.7486 31.5235C44.4086 32.332 43.2539 33.2849 42.2844 34.3824C41.3324 35.4794 40.5919 36.6777 40.0631 37.9771C39.5342 39.2623 39.2697 40.5618 39.2697 41.8754C39.2697 42.4818 39.3667 42.9947 39.5606 43.4132C39.7722 43.8318 40.0454 44.1641 40.3804 44.4095C40.7154 44.6694 41.1032 44.8572 41.5439 44.9726C42.0023 45.0879 42.4873 45.1458 42.9984 45.1458C44.0739 45.1458 45.0259 44.9726 45.8544 44.626C46.6828 44.2795 47.4059 43.8464 48.0228 43.3266C48.6574 42.8214 49.2041 42.2725 49.6623 41.6807C50.1206 41.0743 50.5174 40.5185 50.8525 40.0132C51.1872 39.4935 51.4783 39.0603 51.725 38.7138C51.9717 38.3673 52.201 38.194 52.4125 38.194C52.589 38.194 52.7827 38.2443 52.9943 38.3455C53.2236 38.4321 53.3379 38.5835 53.3379 38.8004C53.3379 38.8434 53.3294 38.9013 53.3116 38.9737C53.2939 39.0312 53.2676 39.0964 53.2321 39.1684C52.5623 40.3379 51.813 41.4714 50.9845 42.5684C50.1561 43.6516 49.2214 44.6115 48.1814 45.449C47.1414 46.3007 45.969 46.9796 44.6642 47.4848C43.3597 47.99 41.8877 48.243 40.2482 48.243Z" fill="white"/>
</svg>
